<svg width="47" height="35" viewBox="0 0 47 35" fill="none" xmlns="http://www.w3.org/2000/svg">
<circle cx="23" cy="31" r="4" fill="#07969E"/>
<path d="M8.192 8.424H3.36V3.8H0.896V15H3.36V10.344H8.192V15H10.64V3.8H8.192V8.424ZM16.4124 15.256C18.9084 15.256 20.9084 13.576 20.9084 10.84C20.9084 8.168 18.9084 6.488 16.4124 6.488C13.9164 6.488 11.9004 8.168 11.9004 10.84C11.9004 13.576 13.9164 15.256 16.4124 15.256ZM16.4124 13.528C15.0524 13.528 14.2044 12.616 14.2044 10.84C14.2044 9.112 15.0524 8.216 16.4124 8.216C17.7564 8.216 18.6044 9.112 18.6044 10.84C18.6044 12.616 17.7564 13.528 16.4124 13.528ZM33.2801 6.488C31.8721 6.488 30.5761 7.464 30.3361 9.256H30.2401C30.1281 7.496 28.8961 6.488 27.4081 6.488C26.0161 6.488 24.7201 7.464 24.4801 9.256H24.3841L24.3041 6.744H22.0961V15H24.3841V10.696C24.3841 9.192 25.0721 8.28 26.2401 8.28C27.3121 8.28 27.9681 9.064 27.9681 10.376V15H30.2401V10.696C30.2401 9.192 30.9281 8.28 32.0961 8.28C33.1841 8.28 33.8241 9.064 33.8241 10.376V15H36.0961V9.512C36.0961 7.592 34.8161 6.488 33.2801 6.488ZM45.7554 10.68C45.7554 8.376 44.2034 6.504 41.5794 6.488C38.9554 6.472 37.2754 8.2 37.2754 10.84C37.2754 13.704 39.0034 15.256 41.6914 15.256C43.4354 15.256 45.4034 14.248 45.6754 12.136H43.6914C43.4834 12.936 42.7314 13.544 41.6914 13.544C40.4114 13.544 39.4834 12.728 39.4514 11.336H45.7554V10.68ZM41.4994 8.2C42.6194 8.2 43.4194 8.888 43.5154 10.104H39.4514C39.5314 8.84 40.3954 8.2 41.4994 8.2Z" fill="#07969E"/>
</svg>
