<svg width="280" height="269" viewBox="0 0 280 269" fill="none" xmlns="http://www.w3.org/2000/svg">
<rect width="280" height="268.333" transform="translate(0 0.402344)" fill="white"/>
<path d="M218.682 201.331L193.414 201.344V214.412L219.078 212.775L218.682 201.331Z" fill="#F674B4"/>
<path d="M149.857 143.371C150.437 141.117 154.963 135.468 152.931 133.603C152.1 132.839 151.282 131.108 152.087 130.786C152.469 130.517 155.61 130.531 155.927 130.665C157.959 128.277 161.534 120.307 162.26 119.154C164.279 115.96 166.601 113.438 170.125 112.499L161.337 60.2678L66.2922 78.1254L86.4016 160.853L149.065 146.846C149.157 145.638 149.54 144.605 149.857 143.371Z" fill="#FFCB56"/>
<path d="M151.321 110.607C151.321 122.843 146.624 133.201 129.536 133.201C117.502 133.201 107.751 122.843 107.751 110.607C107.751 98.3712 117.502 88.4563 129.536 88.4563C141.57 88.4563 151.321 98.3712 151.321 110.607Z" fill="white"/>
<path d="M62.36 67.2712C62.36 68.9617 61.7135 70.3838 59.3516 70.3838C57.689 70.3838 56.3431 68.9617 56.3431 67.2712C56.3431 65.5807 57.689 64.2122 59.3516 64.2122C61.0141 64.2122 62.36 65.5807 62.36 67.2712Z" fill="#7BAEED"/>
<path d="M184.679 53.4118C184.52 53.4118 184.349 53.3313 184.257 53.1838C183.372 51.9226 180.575 48.7026 178.424 48.9709C178.213 48.9978 178.002 48.8904 177.896 48.6892C177.791 48.5013 177.817 48.2598 177.962 48.0988C180.034 45.6302 179.955 40.5318 179.955 40.4916C179.955 40.2635 180.087 40.0489 180.311 39.9818C180.522 39.9013 180.76 39.9818 180.892 40.1562C181.815 41.4039 184.692 44.6642 186.803 44.8386C187.001 44.852 187.173 44.9862 187.239 45.1606C187.318 45.3484 187.278 45.5631 187.146 45.7107C187.12 45.7375 184.758 48.5953 185.18 52.8215C185.207 53.063 185.061 53.2911 184.85 53.3716C184.798 53.3984 184.745 53.4118 184.679 53.4118ZM179.348 47.9513C181.222 48.3135 183.043 50.0711 184.111 51.3188C184.217 48.6758 185.233 46.7035 185.866 45.7107C183.979 45.1069 182.04 43.1347 180.958 41.8869C180.852 43.4701 180.496 46.0461 179.348 47.9513Z" fill="#000200"/>
<path d="M110.258 130.37C107.764 132.785 107.025 135.871 107.289 137.937C107.289 137.937 104.426 133.764 100.745 132.838C101.681 131.47 104.149 129.444 103.542 122.803C103.529 122.803 106.445 130.37 110.258 130.37Z" fill="white"/>
<path d="M48.7955 127.579C47.0274 129.39 45.246 131.188 43.4779 132.999C43.0029 133.482 43.7418 134.234 44.2168 133.751C45.985 131.939 47.7663 130.142 49.5344 128.33C50.0095 127.847 49.2705 127.096 48.7955 127.579Z" fill="#F674B4"/>
<path d="M62.3204 61.6765C60.7634 60.2275 59.2064 58.7785 57.6626 57.3295C57.1743 56.8734 56.4222 57.6113 56.9236 58.0809C58.4807 59.5299 60.0377 60.9789 61.5815 62.4279C62.0829 62.884 62.8219 62.1327 62.3204 61.6765Z" fill="#F674B4"/>
<path d="M115.853 135.28L116.024 140.607L120.55 137.95L115.853 135.28Z" fill="#FF3857"/>
<path d="M132.043 128.827C119.745 128.827 109.73 118.456 109.73 105.71C109.73 93.2057 119.745 83.0225 132.043 83.0225C144.341 83.0225 154.356 93.1923 154.356 105.71C154.356 121.045 146.848 128.827 132.043 128.827ZM132.043 84.0824C120.313 84.0824 110.773 93.7826 110.773 105.71C110.773 117.879 120.313 127.767 132.043 127.767C146.347 127.767 153.314 120.549 153.314 105.71C153.301 93.7826 143.761 84.0824 132.043 84.0824Z" fill="#000200"/>
<path d="M135.672 116.658C135.421 116.658 135.21 116.484 135.157 116.229L131.093 93.6082L124.799 98.7334C124.575 98.9212 124.245 98.881 124.06 98.6529C123.876 98.4248 123.915 98.0894 124.139 97.9015L131.12 92.2129C131.265 92.0921 131.463 92.0653 131.634 92.1324C131.806 92.1995 131.938 92.347 131.964 92.5349L136.187 116.027C136.239 116.309 136.055 116.591 135.764 116.645C135.725 116.658 135.698 116.658 135.672 116.658Z" fill="#000200"/>
<path d="M131.436 117.798C131.212 117.798 130.988 117.637 130.935 117.409C130.856 117.128 131.027 116.832 131.304 116.765L139.749 114.498C140.026 114.417 140.317 114.592 140.383 114.874C140.462 115.155 140.29 115.451 140.013 115.518L131.568 117.785C131.529 117.798 131.489 117.798 131.436 117.798Z" fill="#000200"/>
<path d="M179.809 118.013C179.559 118.013 179.334 117.825 179.295 117.57L172.367 76.0189C172.315 75.7238 172.513 75.4554 172.79 75.4018C173.067 75.3481 173.344 75.5493 173.397 75.8311L180.324 117.383C180.377 117.678 180.179 117.946 179.902 118C179.862 118.013 179.836 118.013 179.809 118.013Z" fill="#000200"/>
<path d="M172.42 69.968L170.098 56.0549C170.072 55.9207 169.992 55.7865 169.887 55.706C169.768 55.6255 169.636 55.5987 169.491 55.6255L74.4599 73.4831C74.3147 73.51 74.196 73.5905 74.1168 73.7112C74.0376 73.832 74.0113 73.9795 74.0508 74.1271L83.4589 112.834C83.4589 112.848 83.4721 112.861 83.4721 112.874C83.802 112.861 84.1319 112.848 84.4618 112.834C84.4882 112.754 84.4882 112.66 84.4618 112.579L75.1856 74.4223L169.161 56.766L171.391 70.1558C171.444 70.4375 171.708 70.6388 171.998 70.5851C172.288 70.5315 172.473 70.2631 172.42 69.968Z" fill="#000200"/>
<path d="M94.8726 158.142C94.6351 158.142 94.424 157.981 94.3712 157.74L85.6493 121.864C85.5833 121.582 85.7548 121.287 86.0319 121.22C86.309 121.153 86.5993 121.327 86.6653 121.609L95.2685 156.975L149.738 143.84C150.015 143.76 150.305 143.948 150.371 144.229C150.437 144.511 150.266 144.806 149.989 144.873L95.0178 158.129C94.9518 158.142 94.9122 158.142 94.8726 158.142Z" fill="#000200"/>
<path d="M153.142 136.769C153.023 136.635 152.852 136.568 152.667 136.608L100.81 146.242L92.326 114.592C92.2468 114.31 91.9697 114.149 91.6794 114.216C91.4023 114.297 91.2308 114.592 91.31 114.874L99.9132 146.993C99.9791 147.221 100.19 147.382 100.415 147.382C100.441 147.382 100.481 147.382 100.507 147.369L152.575 137.695C152.773 137.387 152.971 137.091 153.142 136.769Z" fill="#000200"/>
<path d="M89.885 107.991C89.6607 107.991 89.4496 107.83 89.3836 107.602L82.1791 80.7282C82.1395 80.5806 82.1659 80.433 82.2451 80.2989C82.3242 80.1781 82.4562 80.0842 82.6013 80.0574L163.527 65.7284C163.817 65.6747 164.081 65.8625 164.134 66.1577L164.569 68.5995C164.622 68.8813 164.437 69.163 164.147 69.2167C163.87 69.2704 163.593 69.0825 163.54 68.7874L163.197 66.8688L83.3402 81.01L90.3864 107.32C90.4656 107.602 90.2941 107.897 90.017 107.977C89.9774 107.991 89.9246 107.991 89.885 107.991Z" fill="#000200"/>
<path d="M172.829 117.999C172.579 117.999 172.368 117.825 172.315 117.57L164.358 73.3756C164.305 73.0938 164.49 72.8121 164.78 72.7584C165.057 72.7182 165.334 72.8926 165.387 73.1878L173.344 117.382C173.397 117.664 173.212 117.946 172.922 117.999C172.882 117.986 172.856 117.999 172.829 117.999Z" fill="#000200"/>
<path d="M82.6804 81.1172C82.5616 81.1172 82.4561 81.0769 82.3505 80.9964L74.2223 74.4223C73.998 74.2344 73.9584 73.899 74.1431 73.6709C74.3279 73.4428 74.6446 73.4026 74.8821 73.5904L83.0102 80.1646C83.2346 80.3524 83.2742 80.6878 83.0894 80.9159C82.9839 81.0501 82.8387 81.1172 82.6804 81.1172Z" fill="#000200"/>
<path d="M163.606 66.7746C163.514 66.7746 163.421 66.7478 163.342 66.6941C163.091 66.5465 163.012 66.2111 163.171 65.9696L169.161 55.8669C169.306 55.6119 169.623 55.5314 169.874 55.679C170.124 55.8266 170.204 56.162 170.045 56.4035L164.055 66.5063C163.949 66.6941 163.778 66.7746 163.606 66.7746Z" fill="#000200"/>
<path d="M94.6616 157.257C94.5692 157.257 94.4769 157.23 94.3977 157.176C94.147 157.029 94.0678 156.707 94.213 156.452L99.9924 146.577C100.138 146.322 100.454 146.242 100.705 146.389C100.956 146.537 101.035 146.859 100.89 147.114L95.1102 156.988C95.0179 157.163 94.8331 157.257 94.6616 157.257Z" fill="#000200"/>
<path d="M119.125 88.3891C119.007 88.3891 118.875 88.3488 118.782 88.2549L106.075 76.7702C105.864 76.569 105.838 76.2336 106.036 76.0189C106.234 75.8042 106.55 75.7774 106.775 75.9787L119.482 87.4633C119.693 87.6646 119.719 88 119.521 88.2147C119.416 88.3354 119.27 88.3891 119.125 88.3891Z" fill="#000200"/>
<path d="M114.111 93.6485C114.005 93.6485 113.9 93.6082 113.794 93.5412L94.3448 78.8902C94.1073 78.7157 94.0677 78.3803 94.2392 78.1522C94.4108 77.9242 94.7406 77.8705 94.965 78.0449L114.415 92.6959C114.652 92.8703 114.692 93.2057 114.52 93.4338C114.428 93.568 114.269 93.6485 114.111 93.6485Z" fill="#000200"/>
<path d="M137.242 84.7127C137.189 84.7127 137.15 84.6993 137.097 84.6859C136.82 84.6054 136.662 84.3102 136.741 84.0285L140.818 70.0348C140.897 69.7531 141.188 69.5921 141.465 69.6726C141.742 69.7531 141.9 70.0482 141.821 70.33L137.744 84.3236C137.664 84.5651 137.467 84.7127 137.242 84.7127Z" fill="#000200"/>
<path d="M144.961 88.3888C144.909 88.3888 144.843 88.3754 144.79 88.3619C144.513 88.268 144.381 87.9594 144.473 87.6911L151.189 68.1967C151.282 67.915 151.585 67.7674 151.849 67.8747C152.126 67.9686 152.258 68.2772 152.166 68.5455L145.45 88.04C145.37 88.2546 145.172 88.3888 144.961 88.3888Z" fill="#000200"/>
<path d="M110.245 67.8212C110.126 67.8212 109.994 67.781 109.902 67.6871C109.691 67.4858 109.677 67.1504 109.862 66.9357L121.223 54.1228C121.368 53.9618 121.606 53.9081 121.804 53.9886L139.472 61.341C139.736 61.4483 139.868 61.7569 139.762 62.0386C139.657 62.307 139.34 62.4411 139.076 62.3338L121.751 55.1156L110.641 67.6468C110.535 67.7676 110.39 67.8212 110.245 67.8212Z" fill="#000200"/>
<path d="M158.856 140.472C158.183 140.982 157.153 141.492 156.415 140.835C155.887 140.365 155.108 141.157 155.636 141.626C156.771 142.632 158.288 142.27 159.41 141.438C159.977 141.022 159.423 140.056 158.856 140.472Z" fill="#000200"/>
<path d="M162.115 128.317L161.6 129.31C160.94 130.584 158.988 129.538 159.647 128.263L160.162 127.27C160.822 125.996 162.774 127.042 162.115 128.317Z" fill="#000200"/>
<path d="M163.276 121.501C163.764 121.971 164.173 122.548 164.688 122.977C165.229 123.433 164.635 124.372 164.094 123.916C163.5 123.42 163.025 122.803 162.458 122.253C161.956 121.756 162.761 121.005 163.276 121.501Z" fill="#000200"/>
<path d="M216.835 156.72C213.655 150.817 206.82 148.08 200.486 149.421C199.483 147.046 197.451 145.544 195.116 144.886C198.283 139.09 200.13 131.336 191.579 122.065C189.719 119.502 186.737 117.141 182.633 114.94C172.908 109.721 166.126 110.996 161.904 118.845C160.901 120.696 160.017 122.333 159.186 123.849C157.945 126.116 156.863 128.102 155.742 130.235C154.765 129.913 152.562 129.363 151.598 130.638C151.202 131.161 151.071 131.778 151.202 132.409C151.4 133.308 152.139 134.207 153.221 134.891C149.025 143.209 147.31 148.616 150.081 153.084C151.691 155.673 154.778 157.525 157.378 158.706L159.357 164.515C159.436 164.73 159.634 164.864 159.845 164.864C159.898 164.864 159.964 164.85 160.017 164.837C160.294 164.743 160.426 164.434 160.333 164.153L160.096 163.468C162.339 162.449 162.366 159.9 162.366 159.779C162.366 159.537 162.207 159.323 161.983 159.269C161.904 159.242 153.762 157.028 150.965 152.507C148.695 148.844 149.553 144.403 154.382 134.918C154.382 134.904 154.396 134.891 154.396 134.878C154.409 134.851 154.409 134.837 154.422 134.81C154.422 134.797 154.422 134.784 154.422 134.77C154.422 134.743 154.435 134.73 154.435 134.703C154.435 134.69 154.435 134.676 154.435 134.663C154.435 134.636 154.435 134.623 154.435 134.596C154.435 134.582 154.435 134.569 154.422 134.556C154.422 134.529 154.409 134.515 154.409 134.488C154.409 134.475 154.396 134.462 154.396 134.448C154.382 134.435 154.382 134.408 154.369 134.395C154.356 134.381 154.356 134.368 154.343 134.354C154.33 134.341 154.317 134.327 154.317 134.301C154.303 134.287 154.29 134.274 154.29 134.274C154.277 134.26 154.264 134.247 154.251 134.234C154.237 134.22 154.224 134.22 154.211 134.207C154.198 134.193 154.185 134.18 154.158 134.18C153.129 133.63 152.377 132.825 152.218 132.141C152.153 131.819 152.218 131.523 152.416 131.242C152.957 130.517 154.923 131 155.781 131.349C155.781 131.349 155.794 131.349 155.808 131.349C155.834 131.362 155.847 131.362 155.874 131.362C155.887 131.362 155.9 131.362 155.913 131.362C155.94 131.362 155.966 131.362 155.979 131.362C155.992 131.362 156.005 131.362 156.005 131.362C156.032 131.362 156.058 131.362 156.071 131.349C156.085 131.349 156.098 131.349 156.098 131.349C156.124 131.349 156.137 131.336 156.164 131.322C156.177 131.322 156.19 131.309 156.19 131.309C156.203 131.295 156.23 131.295 156.243 131.282C156.256 131.268 156.269 131.268 156.269 131.255C156.283 131.242 156.296 131.228 156.322 131.215C156.335 131.201 156.349 131.201 156.349 131.188C156.362 131.175 156.375 131.161 156.388 131.148C156.401 131.134 156.401 131.121 156.415 131.107C156.415 131.094 156.428 131.094 156.428 131.081C157.615 128.8 158.763 126.72 160.07 124.305C160.901 122.776 161.798 121.152 162.788 119.301C164.45 116.228 166.548 114.256 169.108 113.371C166.232 123.527 173.542 134.676 173.806 134.797C176.775 136.192 178.609 137.749 179.123 139.305C179.374 140.056 179.321 140.794 178.952 141.505C178.727 141.935 178.186 142.713 177.078 143.035C175.851 143.397 174.333 143.062 172.671 142.096C172.499 141.988 172.051 141.747 171.642 142.324C167.749 147.811 171.774 154.211 177.342 156.076C174.465 158.37 172.169 161.469 172.13 165.28C172.09 169.264 174.558 173.048 178.437 173.826C177.487 181.125 186.038 183.07 191.593 182.815C199.365 182.453 207.862 181.178 213.721 175.476C218.775 170.646 220.239 163.026 216.835 156.72Z" fill="#000200"/>
<path d="M139.274 218.128C139.05 218.128 138.852 217.98 138.773 217.752L134.075 202.779C133.983 202.498 134.141 202.202 134.419 202.109C134.696 202.028 134.986 202.176 135.078 202.457L139.776 217.43C139.868 217.712 139.71 218.007 139.433 218.101C139.38 218.115 139.327 218.128 139.274 218.128Z" fill="#000200"/>
<path d="M149.962 218.128C149.738 218.128 149.54 217.981 149.461 217.752L144.447 201.478C144.354 201.196 144.513 200.901 144.79 200.807C145.067 200.713 145.357 200.874 145.45 201.156L150.464 217.43C150.556 217.712 150.398 218.007 150.121 218.101C150.068 218.128 150.015 218.128 149.962 218.128Z" fill="#000200"/>
<path d="M211.003 209.997C210.778 209.997 210.567 209.836 210.501 209.608L202.532 179.998C202.452 179.716 202.624 179.421 202.901 179.34C203.178 179.273 203.468 179.434 203.548 179.716L211.517 209.327C211.597 209.608 211.425 209.904 211.148 209.984C211.095 209.984 211.056 209.997 211.003 209.997Z" fill="#000200"/>
<path d="M105.838 174.148C100.309 174.148 94.9387 173.357 90.835 171.264C87.2328 169.426 84.8313 166.742 83.7097 163.281C78.999 148.818 81.5589 126.076 84.9104 122.333C85.3723 121.81 85.8473 121.3 86.3223 120.804C88.9218 118.013 91.376 115.383 93.0518 110.084C93.9095 107.36 93.5664 105.857 92.8803 105.602C92.2865 105.388 91.2969 106.032 90.7823 107.347C90.5843 107.856 90.4128 108.313 90.2545 108.742C89.2516 111.412 88.7898 112.633 86.23 112.915C85.9001 112.955 83.4194 113.451 82.6805 112.807C81.6908 111.935 81.3742 109.668 81.5985 105.012C81.6117 104.717 81.8624 104.489 82.1395 104.502C82.4298 104.516 82.6541 104.771 82.6409 105.052C82.443 109.118 82.6805 111.398 83.3666 111.989C83.6965 112.284 85.7549 111.895 86.1244 111.855C88.0509 111.64 88.3148 110.942 89.2912 108.366C89.4496 107.937 89.6211 107.481 89.8322 106.958C90.5447 105.16 92.0094 104.153 93.2497 104.61C93.8039 104.811 95.5061 105.831 94.0678 110.419C92.3129 115.947 89.6607 118.791 87.1008 121.555C86.639 122.051 86.164 122.548 85.7022 123.071C82.918 126.184 79.9623 148.348 84.7257 162.959C85.7681 166.138 87.9849 168.621 91.3365 170.324C101.286 175.396 118.941 172.565 127.715 169.587C133.389 167.668 142.032 166.528 151.176 165.333C160.835 164.059 170.837 162.757 177.302 160.423C177.58 160.329 177.87 160.477 177.962 160.745C178.055 161.027 177.923 161.322 177.646 161.429C171.074 163.791 161.02 165.105 151.308 166.393C142.217 167.587 133.627 168.714 128.045 170.606C122.662 172.391 114.072 174.148 105.838 174.148Z" fill="#000200"/>
<path d="M144.671 166.675C144.249 166.729 143.827 166.756 143.404 166.756C143.417 166.769 143.417 166.782 143.431 166.796C149.474 174.242 152.311 182.212 151.401 189.229C150.78 193.992 148.432 198.11 144.763 200.807C96.3902 207.529 80.3713 201.129 66.2658 186.089C52.1206 171.022 55.5777 137.159 66.0151 112.941C67.361 109.815 70.066 108.299 70.0923 108.286C70.3431 108.152 70.9896 107.333 70.8577 107.078C70.7257 106.823 69.8548 107.213 69.6041 107.347C69.4854 107.414 66.5561 109.037 65.065 112.512C54.4957 137.038 51.065 171.425 65.5136 186.814C76.0433 198.017 87.5627 204.524 112.198 204.524C121.197 204.524 131.951 203.652 145.04 201.827C145.12 201.813 145.199 201.787 145.278 201.733C149.25 198.862 151.796 194.461 152.456 189.349C153.353 182.239 150.596 174.202 144.671 166.675Z" fill="#000200"/>
<path d="M127.188 203.88C127.135 203.88 127.082 203.866 127.029 203.853C126.752 203.759 126.607 203.464 126.686 203.182C129.774 193.388 127.57 179.408 121.764 171.988C121.58 171.76 121.619 171.425 121.844 171.237C122.068 171.049 122.398 171.089 122.582 171.317C128.679 179.112 130.922 193.24 127.689 203.491C127.61 203.732 127.399 203.88 127.188 203.88Z" fill="#000200"/>
<path d="M122.173 204.242C122.134 204.242 122.081 204.242 122.041 204.228C121.764 204.148 121.593 203.866 121.672 203.584C123.849 195.239 123.572 182.037 117.766 172.766C117.608 172.525 117.687 172.189 117.925 172.028C118.175 171.867 118.492 171.948 118.65 172.189C124.615 181.715 124.918 195.279 122.675 203.839C122.609 204.094 122.398 204.242 122.173 204.242Z" fill="#000200"/>
<path d="M77.2309 115.531C76.967 115.531 76.7295 115.316 76.7163 115.035C76.6899 114.619 75.9906 104.851 79.3949 98.4918C79.5269 98.2368 80.1207 97.1635 80.3714 97.2977C80.6221 97.4453 80.4505 98.7333 80.3054 99.0016C77.0462 105.079 77.7455 114.847 77.7455 114.954C77.7719 115.249 77.5476 115.504 77.2705 115.518C77.2573 115.531 77.2441 115.531 77.2309 115.531Z" fill="#000200"/>
<path d="M71.7681 116.658C71.7549 116.658 71.7549 116.658 71.7417 116.658C71.4514 116.644 71.2271 116.39 71.2403 116.108C71.7681 104.959 74.262 102.517 78.2997 99.4845C78.524 99.3101 79.6456 98.7466 79.8171 98.9747C79.9886 99.2162 79.1573 100.155 78.9198 100.33C75.0141 103.268 72.7841 105.455 72.2827 116.161C72.2695 116.443 72.0452 116.658 71.7681 116.658Z" fill="#000200"/>
<path d="M67.6116 117.798C67.5984 117.798 67.5984 117.798 67.5852 117.798C67.2949 117.785 67.0706 117.53 67.097 117.235C67.4665 110.298 69.3006 106.689 73.8529 103.925C74.1036 103.778 74.4203 103.858 74.5654 104.113C74.7106 104.368 74.6314 104.69 74.3807 104.838C70.1187 107.414 68.4825 110.687 68.1394 117.302C68.113 117.584 67.8887 117.798 67.6116 117.798Z" fill="#000200"/>
<path d="M182.303 82.6465C178.318 82.6465 176.709 80.7011 175.138 78.8094C174.241 77.7226 173.304 76.609 171.892 75.7906C170.335 74.9051 168.079 74.4489 165.889 74.0062C162.418 73.3085 159.146 72.6511 159.001 70.2227C158.948 69.4177 158.974 68.6127 159.515 68.1297C160.307 67.4186 161.679 67.6869 165.031 68.3309C166.918 68.6932 169.517 69.1896 172.908 69.6726C173.199 69.7129 173.397 69.9812 173.357 70.2764C173.318 70.5715 173.054 70.7594 172.763 70.7325C169.346 70.2495 166.746 69.7531 164.846 69.3909C162.3 68.9079 160.624 68.5859 160.215 68.9481C160.056 69.0957 160.004 69.4982 160.043 70.1824C160.149 71.8059 163.039 72.3828 166.1 72.9999C168.369 73.4561 170.718 73.9257 172.42 74.9051C174.004 75.804 174.993 76.9981 175.957 78.1654C177.514 80.0437 178.873 81.6671 182.475 81.6134C182.475 81.6134 182.475 81.6134 182.488 81.6134C182.778 81.6134 183.003 81.8415 183.016 82.1367C183.016 82.4319 182.792 82.6734 182.501 82.6734C182.422 82.6465 182.356 82.6465 182.303 82.6465Z" fill="#000200"/>
<path d="M214.394 162.06C214.275 162.06 214.143 162.019 214.051 161.926C213.84 161.724 213.813 161.402 214.011 161.174C229.172 143.8 230.07 111.761 225.504 100.102C216.967 78.286 193.084 69.0956 170.85 62.991C170.573 62.9105 170.401 62.6288 170.481 62.3336C170.56 62.0518 170.85 61.8774 171.114 61.9579C193.598 68.143 217.759 77.4676 226.467 99.7124C231.112 111.586 230.202 144.202 214.79 161.885C214.684 161.993 214.539 162.06 214.394 162.06Z" fill="#000200"/>
<path d="M195.419 142.78C195.301 142.78 195.169 142.74 195.076 142.646C194.865 142.458 194.839 142.122 195.023 141.894C201.159 134.797 204.458 120.455 202.518 109.238C200.671 98.5585 190.946 90.6159 174.4 86.2823C174.122 86.2152 173.951 85.92 174.03 85.6383C174.109 85.3565 174.386 85.1821 174.663 85.2626C191.645 89.7035 201.634 97.9279 203.547 109.064C205.527 120.562 202.136 135.293 195.802 142.592C195.71 142.726 195.564 142.78 195.419 142.78Z" fill="#000200"/>
<path d="M221.506 150.964C221.493 150.964 221.48 150.964 221.466 150.964C221.176 150.937 220.965 150.682 220.991 150.387C221.374 145.799 214.064 137.789 199.853 135.334C199.562 135.28 199.378 135.012 199.43 134.717C199.483 134.421 199.747 134.234 200.037 134.287C215.04 136.89 222.456 145.356 222.034 150.481C222.007 150.749 221.783 150.964 221.506 150.964Z" fill="#000200"/>
<path d="M219.197 154.761C218.946 154.761 218.735 154.587 218.682 154.332C217.521 148.174 210.567 143.156 198.019 139.426C197.742 139.345 197.583 139.05 197.662 138.768C197.742 138.487 198.032 138.326 198.309 138.406C211.267 142.257 218.458 147.543 219.711 154.131C219.764 154.412 219.58 154.694 219.302 154.748C219.263 154.761 219.223 154.761 219.197 154.761Z" fill="#000200"/>
<rect x="42.5833" y="194.652" width="213.5" height="22.75" fill="#A0DDE2" fill-opacity="0.8"/>
</svg>
