<svg width="280" height="269" viewBox="0 0 280 269" fill="none" xmlns="http://www.w3.org/2000/svg">
<rect width="280" height="268.333" transform="translate(0 0.402222)" fill="white"/>
<path d="M112.264 69.0419C110.126 66.8819 107.989 64.7218 105.864 62.5483C105.389 62.0653 104.65 62.8166 105.125 63.2996C107.263 65.4597 109.401 67.6198 111.525 69.7933C112 70.2763 112.739 69.5249 112.264 69.0419Z" fill="#F674B4"/>
<path d="M154.779 57.1279C153.525 58.6038 152.271 60.0662 151.018 61.542C150.569 62.0653 151.335 62.8166 151.77 62.2933C153.024 60.8175 154.277 59.3551 155.531 57.8793C155.979 57.3694 155.214 56.6047 154.779 57.1279Z" fill="#7BAEED"/>
<path d="M166.179 65.0035C163.065 66.4391 159.964 67.8881 156.85 69.3237C156.23 69.6189 156.771 70.5312 157.391 70.2494C160.505 68.8139 163.606 67.3649 166.72 65.9293C167.353 65.6341 166.812 64.7218 166.179 65.0035Z" fill="#F674B4"/>
<path d="M158.869 146.362C150.094 147.61 150.794 160.933 160.492 160.866C171.497 160.785 169.715 144.806 158.869 146.362Z" fill="#FFCB56"/>
<path d="M106.946 154.318L108.49 159.001L112.91 155.418L106.946 154.318Z" fill="#F674B4"/>
<path d="M37.4872 104.368L42.0396 115.893L49.4684 106.448L37.4872 104.368Z" fill="#7BAEED"/>
<path d="M220.134 81.0498L209.908 94.1311L222.562 105.629L235.097 94.1311L220.134 81.0498Z" fill="#F674B4"/>
<path d="M214.024 90.8574H207.493L206.451 98.6659L212.586 100.732L214.024 90.8574Z" fill="#FFCB56"/>
<path d="M50.8671 85.9604C50.5768 88.0266 50.2865 90.0794 49.9962 92.1455C49.9039 92.8164 50.9067 93.1115 51.0123 92.4273C51.3026 90.3611 51.5928 88.3083 51.8831 86.2422C51.9755 85.5713 50.9595 85.2762 50.8671 85.9604Z" fill="#FFCB56"/>
<path d="M216.452 75.2404C216.347 74.5696 215.331 74.8513 215.436 75.5221C215.582 76.4076 215.727 77.2931 215.872 78.1786C215.977 78.8495 216.993 78.5677 216.888 77.8969C216.743 77.0114 216.598 76.1259 216.452 75.2404Z" fill="#7BAEED"/>
<path d="M238.119 101.363C236.522 101.51 234.926 101.658 233.342 101.805C232.669 101.873 232.669 102.932 233.342 102.865C234.939 102.718 236.535 102.57 238.119 102.423C238.778 102.369 238.792 101.309 238.119 101.363Z" fill="#7BAEED"/>
<path d="M43.9001 95.2178C43.0292 94.6275 42.1583 94.0371 41.2875 93.4602C40.7201 93.0846 40.1923 93.9969 40.7597 94.386C41.6305 94.9763 42.5014 95.5666 43.3723 96.1436C43.9397 96.5192 44.4675 95.5935 43.9001 95.2178Z" fill="#FFCB56"/>
<path d="M96.3374 71.2959C81.8228 75.294 68.5617 82.9549 57.7417 93.5809C57.2535 94.0639 57.9924 94.8153 58.4806 94.3323C69.1819 83.8404 82.2714 76.2869 96.6145 72.3289C97.261 72.1411 96.9839 71.1214 96.3374 71.2959Z" fill="#7BAEED"/>
<path d="M200.288 76.2064C194.694 71.3898 188.202 68.0222 181.063 66.2781C180.403 66.1171 180.126 67.1502 180.786 67.3112C187.74 69.0151 194.087 72.2619 199.536 76.9577C200.051 77.4005 200.803 76.6492 200.288 76.2064Z" fill="#7BAEED"/>
<path d="M178.358 208.535C178.081 208.535 177.844 208.307 177.83 208.012L175.917 139.775C175.904 139.479 176.141 139.238 176.432 139.224C176.709 139.224 176.96 139.453 176.973 139.748L178.886 207.985C178.899 208.28 178.662 208.522 178.371 208.535C178.358 208.535 178.358 208.535 178.358 208.535Z" fill="#000200"/>
<path d="M93.8832 211.098C93.5929 211.098 93.3553 210.856 93.3553 210.561V200.27C93.3553 199.975 93.5929 199.734 93.8832 199.734C94.1734 199.734 94.411 199.975 94.411 200.27V210.561C94.411 210.87 94.1734 211.098 93.8832 211.098Z" fill="#000200"/>
<path d="M125.894 171.505C125.881 171.505 125.868 171.505 125.855 171.505L110.958 170.244C110.812 170.23 110.681 170.163 110.601 170.056C110.509 169.949 110.469 169.801 110.483 169.654L111.419 161.027C111.446 160.758 111.67 160.557 111.934 160.557H125.894C126.185 160.557 126.422 160.799 126.422 161.094V170.982C126.422 171.129 126.356 171.277 126.251 171.371C126.145 171.451 126.013 171.505 125.894 171.505ZM111.565 169.224L125.367 170.391V161.617H112.396L111.565 169.224Z" fill="#000200"/>
<path d="M163.408 157.189C158.143 157.189 155.465 153.392 155.214 149.851C154.963 146.376 156.916 142.324 161.785 141.626C165.189 141.13 168.158 142.31 169.927 144.833C171.642 147.275 171.919 150.629 170.626 153.205C169.346 155.754 166.799 157.176 163.474 157.203C163.461 157.189 163.435 157.189 163.408 157.189ZM161.93 142.686C157.721 143.29 156.045 146.778 156.256 149.783C156.481 152.95 158.79 156.129 163.408 156.129C163.435 156.129 163.461 156.129 163.487 156.129C166.403 156.103 168.62 154.895 169.715 152.722C170.837 150.508 170.586 147.583 169.095 145.463C168.185 144.162 166.047 142.096 161.93 142.686Z" fill="#000200"/>
<path d="M91.6927 155.74C91.3233 153.057 90.0961 149.233 91.5872 146.228C93.7116 141.962 97.327 137.252 98.6861 138.889C100.916 141.559 107.065 180.4 105.93 191.415C104.795 202.43 94.279 208.012 94.279 208.012L93.8963 200.284C93.8963 200.284 99.0028 195.427 99.2799 185.968C99.557 176.509 93.8435 149.891 93.8435 149.891L91.6927 155.74Z" fill="#000200"/>
<path d="M182.409 190.57C181.631 194.354 179.981 197.439 178.107 199.895C178.041 198.835 177.975 197.761 177.909 196.701C177.553 191.214 175.957 142.042 176.616 140.405C175.627 135.266 179.018 141.317 180.733 145.222C182.185 148.522 183.926 152.815 183.676 157.042C183.953 170.069 183.676 184.425 182.409 190.57Z" fill="#000200"/>
<path d="M84.7917 173.813C84.5014 173.813 84.2639 173.571 84.2639 173.276L84.2375 132.717C84.2375 129.645 86.5994 127.176 89.6079 127.096C102.526 126.76 102.579 126.827 102.803 127.109C102.909 127.243 102.948 127.418 102.909 127.579C102.843 127.861 102.552 128.048 102.275 127.968C102.262 127.968 102.249 127.954 102.236 127.954C101.879 127.928 99.8737 127.887 89.6343 128.169C87.1932 128.236 85.2799 130.235 85.2799 132.717L85.3063 173.276C85.3195 173.571 85.082 173.813 84.7917 173.813Z" fill="#000200"/>
<path d="M180.113 151.528C179.823 151.528 179.585 151.286 179.585 150.991V131.725C179.585 129.216 177.58 127.176 175.112 127.176C174.822 127.176 174.584 126.935 174.584 126.64C174.584 126.345 174.822 126.103 175.112 126.103C178.16 126.103 180.628 128.625 180.628 131.711V150.978C180.628 151.286 180.403 151.528 180.113 151.528Z" fill="#000200"/>
<path d="M87.0876 211.098C86.7973 211.098 86.5598 210.856 86.5598 210.561V206.361C86.5598 206.066 86.7973 205.825 87.0876 205.825C87.3779 205.825 87.6154 206.066 87.6154 206.361V210.561C87.6154 210.869 87.3779 211.098 87.0876 211.098Z" fill="#000200"/>
<path d="M166.852 126.653C166.351 118.59 160.043 119.596 160.043 119.596C158.288 114.779 153.749 114.176 153.749 114.176C153.367 108.286 150.477 102.194 137.915 102.852C125.353 103.509 119.904 108.97 120.339 117.49C115.101 117.557 113.227 120.777 113.254 122.896C112.237 120.535 111.96 117.718 111.934 114.471C111.776 100.075 118.611 95.352 144.565 95.0971C166.205 94.8824 168.33 99.6051 168.95 110.419C169.359 117.825 169.412 123.125 166.852 126.653Z" fill="#000200"/>
<path d="M145.793 132.865C116.354 132.865 111.538 127.445 111.406 114.484C111.34 108.259 112.567 104.167 115.404 101.229C119.812 96.6534 128.256 94.7215 144.552 94.5739V95.1105V94.5739C166.271 94.3726 168.818 99.2294 169.465 110.392C169.913 118.308 169.966 124.198 166.535 127.901C163.303 131.376 157.101 132.865 145.793 132.865ZM144.566 95.6338C128.573 95.7814 120.353 97.6194 116.157 101.966C113.531 104.69 112.383 108.541 112.449 114.471C112.581 126.251 115.906 131.792 145.793 131.792C156.784 131.792 162.762 130.41 165.77 127.163C168.924 123.769 168.858 118.093 168.422 110.446C167.855 100.571 166.522 95.4325 144.566 95.6338Z" fill="#000200"/>
<path d="M125.881 124.667C125.815 124.667 125.736 124.654 125.67 124.627C125.406 124.506 125.288 124.198 125.406 123.929C127.267 119.596 131.925 108.956 131.925 108.956C132.043 108.688 132.347 108.567 132.598 108.675C132.743 108.728 146.901 114.578 153.657 113.518C153.947 113.478 154.211 113.679 154.251 113.961C154.29 114.256 154.106 114.524 153.815 114.565C147.416 115.571 135.263 110.888 132.677 109.855C131.753 111.962 127.992 120.562 126.356 124.359C126.277 124.547 126.092 124.667 125.881 124.667Z" fill="#000200"/>
<path d="M119.891 128.813C119.64 128.813 119.416 128.625 119.376 128.37C119.205 127.257 119.455 126.251 120.102 125.459C121.131 124.225 123.084 123.608 125.881 123.608C126.172 123.608 126.409 123.849 126.409 124.144C126.409 124.439 126.172 124.681 125.881 124.681C123.427 124.681 121.712 125.191 120.894 126.157C120.432 126.707 120.273 127.391 120.405 128.209C120.445 128.505 120.26 128.773 119.97 128.827C119.943 128.813 119.917 128.813 119.891 128.813Z" fill="#000200"/>
<path d="M142.454 130.423C142.164 130.423 141.927 130.182 141.927 129.887C141.927 129.591 142.164 129.35 142.454 129.35C143.431 129.35 144.236 129.082 144.618 128.639C144.829 128.384 144.895 128.075 144.843 127.7C144.698 126.854 142.863 126.385 141.993 126.291C141.729 126.264 141.531 126.036 141.531 125.768V120.884C141.531 120.589 141.768 120.347 142.059 120.347C142.349 120.347 142.586 120.589 142.586 120.884V125.298C143.563 125.472 145.648 126.023 145.885 127.525C146.004 128.209 145.845 128.84 145.436 129.323C144.829 130.034 143.774 130.423 142.454 130.423Z" fill="#000200"/>
<path d="M135.118 118.187C134.26 118.281 133.429 118.429 132.598 118.684C131.951 118.885 132.386 119.851 133.033 119.65C133.759 119.421 134.524 119.314 135.289 119.234C135.962 119.153 135.791 118.107 135.118 118.187Z" fill="#000200"/>
<path d="M150.266 118.59C149.725 118.227 149.131 117.972 148.616 117.57C148.089 117.154 147.35 117.919 147.891 118.335C148.471 118.791 149.144 119.099 149.751 119.515C150.319 119.891 150.82 118.952 150.266 118.59Z" fill="#000200"/>
<path d="M154.462 132.194C154.172 132.194 153.934 131.953 153.934 131.671C153.894 126.653 153.763 122.387 153.222 114.216C152.707 106.421 147.706 102.879 137.942 103.389C131.186 103.737 126.356 105.495 123.585 108.621C121.593 110.875 120.669 113.84 120.854 117.463C120.867 117.758 120.643 118.013 120.353 118.026C120.036 118.026 119.812 117.812 119.798 117.516C119.6 113.612 120.603 110.379 122.794 107.91C125.763 104.569 130.829 102.691 137.876 102.329C148.194 101.792 153.71 105.763 154.251 114.149C154.792 122.32 154.924 126.76 154.963 131.671C154.99 131.953 154.765 132.194 154.462 132.194C154.475 132.194 154.462 132.194 154.462 132.194Z" fill="#000200"/>
<path d="M95.5458 146.389C95.4666 146.389 95.3874 146.376 95.3214 146.335C95.0575 146.215 94.952 145.893 95.0707 145.624L95.4006 144.927C97.4195 140.687 103.555 127.807 103.173 115.973C102.803 104.811 102.909 97.1364 107.355 92.3869C112.132 87.2886 121.448 85.4505 144.288 85.0883C163.276 84.726 174.07 86.0945 175.363 118.576C175.442 120.656 175.508 122.588 175.561 124.386C175.772 131.268 175.917 136.246 177.118 140.244C177.197 140.526 177.052 140.821 176.775 140.915C176.498 140.995 176.207 140.848 176.115 140.566C174.875 136.434 174.729 131.403 174.518 124.426C174.466 122.628 174.4 120.696 174.32 118.616C173.001 85.5847 161.587 85.8128 144.315 86.1482C121.804 86.497 112.673 88.2546 108.121 93.1114C103.951 97.5523 103.872 105.039 104.228 115.933C104.624 128.022 98.3959 141.089 96.3507 145.383L96.0208 146.08C95.9284 146.282 95.7437 146.389 95.5458 146.389Z" fill="#000200"/>
<path d="M113.254 122.91L112.726 122.896C112.713 121.608 113.267 120.267 114.283 119.207C115.246 118.201 117.08 116.993 120.339 116.953C120.603 116.953 120.867 117.181 120.867 117.476C120.867 117.771 120.643 118.013 120.353 118.013C117.45 118.053 115.866 119.086 115.035 119.945C114.23 120.777 113.768 121.877 113.781 122.883L113.254 122.91Z" fill="#000200"/>
<path d="M166.364 127.471C166.364 127.512 166.364 127.539 166.377 127.579C166.694 127.27 167.037 126.975 167.393 126.707C167.393 126.68 167.393 126.653 167.393 126.626C167.221 123.782 166.324 121.689 164.741 120.401C163.118 119.073 161.244 118.992 160.413 119.032C158.473 114.323 154.026 113.666 153.842 113.639C153.551 113.599 153.287 113.8 153.248 114.095C153.208 114.39 153.406 114.659 153.697 114.699C153.868 114.726 157.945 115.343 159.582 119.784C159.674 120.025 159.898 120.159 160.149 120.119C160.175 120.119 162.352 119.797 164.094 121.233C165.427 122.333 166.192 124.158 166.351 126.693C166.351 126.948 166.364 127.203 166.364 127.471Z" fill="#000200"/>
<path d="M134.181 128.921C133.455 128.921 132.703 128.746 132.017 128.397C130.196 127.472 129.141 125.593 129.141 123.232C129.141 122.937 129.378 122.695 129.668 122.695C129.959 122.695 130.196 122.937 130.196 123.232C130.209 125.177 131.041 126.707 132.492 127.445C133.732 128.075 135.184 127.968 136.2 127.203C137.361 126.318 137.796 124.708 137.44 122.668C137.387 122.373 137.585 122.105 137.862 122.051C138.153 121.998 138.417 122.199 138.469 122.481C139.05 125.794 137.691 127.391 136.82 128.048C136.068 128.625 135.131 128.921 134.181 128.921Z" fill="#000200"/>
<path d="M149.039 128.317C148.392 128.317 147.746 128.169 147.152 127.847C145.45 126.975 144.486 125.043 144.486 122.574C144.486 122.279 144.724 122.038 145.014 122.038C145.304 122.038 145.542 122.279 145.542 122.574C145.542 124.627 146.307 126.21 147.64 126.895C148.682 127.431 149.91 127.337 150.846 126.653C151.994 125.808 152.483 124.211 152.179 122.279C152.14 121.984 152.324 121.716 152.615 121.662C152.905 121.622 153.169 121.81 153.222 122.105C153.591 124.439 152.958 126.412 151.467 127.512C150.728 128.048 149.896 128.317 149.039 128.317Z" fill="#000200"/>
<path d="M138.074 125.204C137.889 125.204 137.704 125.11 137.612 124.922C137.467 124.667 137.572 124.345 137.823 124.198C137.981 124.104 141.781 122.038 145.225 123.701C145.489 123.822 145.595 124.144 145.476 124.412C145.357 124.681 145.041 124.788 144.777 124.667C141.808 123.232 138.364 125.11 138.324 125.137C138.245 125.177 138.153 125.204 138.074 125.204Z" fill="#000200"/>
<path d="M146.954 122.776L146.848 123.836C146.703 125.204 148.788 125.419 148.933 124.064L149.039 123.004C149.171 121.635 147.086 121.407 146.954 122.776Z" fill="#000200"/>
<path d="M132.822 123.111L132.716 124.171C132.571 125.54 134.656 125.754 134.801 124.399L134.907 123.339C135.052 121.971 132.967 121.743 132.822 123.111Z" fill="#000200"/>
<path d="M76.5844 179.474C75.8719 179.474 75.1197 179.394 74.3148 179.206C69.2215 178.066 67.5062 169.345 65.5137 159.256C64.9595 156.425 64.3789 153.5 63.706 150.655C63.5872 150.186 63.4816 149.743 63.3761 149.274C62.1489 144.122 60.935 139.238 59.378 136.206C55.0236 127.659 47.3044 122.024 44.3883 121.407C43.9529 121.313 43.755 121.367 43.7154 121.394C43.6494 121.555 43.4251 122.534 46.3808 125.62C47.7267 127.015 48.0434 129.081 47.2121 130.879C46.5523 132.315 46.3016 133.63 46.4732 134.81C46.5127 135.106 46.3148 135.374 46.0377 135.414C45.7474 135.454 45.4835 135.253 45.4439 134.971C45.246 133.576 45.5231 132.047 46.2752 130.423C46.9218 129.028 46.6711 127.431 45.6419 126.358C43.214 123.822 42.2771 122.051 42.7785 120.938C42.8841 120.709 43.1744 120.307 43.9133 120.28C43.9265 120.28 43.9529 120.28 43.9661 120.28C46.9746 120.28 55.657 126.573 60.3148 135.709C61.9246 138.849 63.165 143.8 64.4053 149.019C64.5109 149.475 64.6164 149.931 64.7352 150.387C65.4081 153.258 65.9887 156.197 66.5561 159.041C68.3902 168.365 70.1188 177.167 74.5523 178.16C82.9576 180.051 86.2564 170.257 90.0566 158.934C91.5608 154.479 93.1047 149.864 95.0839 145.611C95.2027 145.342 95.5194 145.235 95.7833 145.356C96.0472 145.477 96.1527 145.799 96.034 146.067C94.0811 150.253 92.5373 154.841 91.0594 159.269C87.5627 169.64 84.2639 179.474 76.5844 179.474Z" fill="#000200"/>
<path d="M38.8332 133.697C38.7672 133.697 38.7012 133.683 38.6352 133.657C35.6927 132.395 27.5646 129.511 25.2686 131.228C24.8332 131.564 24.6484 132.073 24.7144 132.798C24.7408 133.093 24.5297 133.348 24.2394 133.375C23.9491 133.402 23.6984 133.187 23.672 132.892C23.54 131.51 24.1206 130.745 24.6484 130.37C26.6805 128.853 31.5099 130.007 35.0462 131.175C33.9114 130.651 32.7106 130.222 31.6286 129.833C29.3855 129.041 27.7493 128.464 27.4062 127.391C27.3138 127.109 27.2743 126.653 27.6437 126.103C29.8077 122.87 42.5542 127.834 46.4072 129.444C46.6711 129.551 46.803 129.86 46.6974 130.141C46.5919 130.41 46.2752 130.544 46.0113 130.437C36.8011 126.613 29.5966 125.083 28.5146 126.72C28.3695 126.935 28.3958 127.029 28.409 127.069C28.5938 127.632 30.3883 128.276 31.9717 128.84C34.4392 129.712 37.5268 130.812 39.2422 132.825C39.4006 133.013 39.4137 133.281 39.2686 133.482C39.163 133.616 39.0047 133.697 38.8332 133.697Z" fill="#000200"/>
<path d="M36.2997 135.36C35.4816 135.146 34.492 134.824 33.4364 134.502C29.3591 133.214 24.7408 131.751 23.2761 133.469C22.6164 134.233 22.6823 135.428 23.4741 137.118C23.4741 137.131 23.4872 137.131 23.4872 137.145C23.7907 137.131 24.0942 137.145 24.3845 137.172C24.4769 137.024 24.4901 136.823 24.4109 136.662C23.8303 135.441 23.7116 134.569 24.0546 134.166C25.0707 132.972 29.9001 134.515 33.1065 135.521C34.1753 135.857 35.1781 136.179 36.0226 136.407C36.2997 136.474 36.59 136.313 36.656 136.031C36.7483 135.723 36.59 135.428 36.2997 135.36Z" fill="#000200"/>
<path d="M73.2328 211.098C71.4383 211.098 69.5514 210.91 67.5589 210.507C47.8718 206.496 44.3487 178.723 42.6598 165.387C42.5014 164.126 42.3563 163.012 42.2243 162.086C41.9736 160.396 41.6833 158.786 41.3798 157.324C41.3139 156.948 41.2347 156.586 41.1423 156.223C39.7173 149.837 37.8568 145.584 36.0226 144.524C33.9378 143.317 31.312 142.619 28.9896 142.002C25.7436 141.143 23.1838 140.459 22.656 138.674C22.4977 138.138 22.3393 137.36 22.8407 136.809C23.7908 135.776 26.2583 136.286 33.951 138.044C34.2281 138.111 34.4128 138.393 34.3469 138.674C34.2809 138.956 34.0038 139.144 33.7267 139.077C28.3959 137.856 24.1998 136.89 23.6192 137.521C23.5269 137.628 23.5401 137.923 23.672 138.352C24.0283 139.56 26.5749 140.244 29.2667 140.955C31.6419 141.586 34.3469 142.297 36.5504 143.585C39.4138 145.235 41.3007 152.051 42.1716 155.955C42.2639 156.317 42.3563 156.72 42.4223 157.109C42.7389 158.585 43.0292 160.208 43.2799 161.925C43.4119 162.865 43.557 163.978 43.7154 165.253C45.378 178.347 48.8351 205.61 67.7832 209.474C88.3808 213.687 98.132 193.092 98.2243 192.878C98.3431 192.609 98.6598 192.502 98.9237 192.623C99.1876 192.744 99.2931 193.066 99.1744 193.334C99.0688 193.522 90.7427 211.098 73.2328 211.098Z" fill="#000200"/>
<path d="M41.6437 156.062C41.7493 156.438 41.8153 156.814 41.8944 157.189C46.0641 157.968 50.3921 157.847 54.5485 156.733C58.2696 155.727 62.0829 153.634 64.2469 150.521C64.1282 150.052 64.0226 149.596 63.9171 149.139C61.6739 153.218 56.3299 155.472 51.804 156.25C48.3996 156.841 44.9689 156.76 41.6437 156.062Z" fill="#000200"/>
<path d="M80.7408 209.944C80.5165 209.944 80.3053 209.796 80.2394 209.568C79.2365 206.241 75.7794 202.887 71.2403 200.847C65.5268 198.271 59.18 198.244 53.8492 200.767C53.5853 200.887 53.2818 200.78 53.1498 200.512C53.0311 200.243 53.1366 199.935 53.4005 199.801C59.0085 197.144 65.6588 197.158 71.6625 199.868C76.4788 202.041 80.147 205.637 81.2422 209.259C81.3214 209.541 81.1762 209.836 80.8991 209.93C80.8463 209.93 80.7936 209.944 80.7408 209.944Z" fill="#000200"/>
<path d="M194.997 172.753C187.054 172.753 183.122 160.383 180.179 151.139L179.981 150.521C178.543 145.96 177.303 142.015 175.983 140.258C175.811 140.03 175.851 139.694 176.075 139.506C176.3 139.332 176.63 139.372 176.814 139.6C178.239 141.505 179.519 145.517 180.984 150.173L181.182 150.79C185.035 162.918 189.152 173.625 197.095 171.357C205.593 168.929 207.585 154.305 209.353 141.398L209.393 141.089C209.472 140.606 209.525 140.15 209.591 139.681C210.317 134.354 211.082 129.31 212.375 126.022C216.149 116.416 224.264 109.265 227.22 109.037C227.972 108.983 228.275 109.346 228.407 109.574C229.027 110.634 228.249 112.512 226.032 115.303C225.135 116.43 225.042 118.026 225.795 119.287C226.731 120.857 227.167 122.373 227.088 123.795C227.074 124.09 226.824 124.319 226.533 124.305C226.243 124.292 226.019 124.037 226.032 123.742C226.085 122.534 225.702 121.219 224.884 119.837C223.908 118.201 224.04 116.108 225.201 114.632C227.893 111.224 227.576 110.258 227.484 110.11C227.457 110.097 227.259 110.057 226.824 110.191C223.974 111.103 216.835 117.476 213.325 126.412C212.072 129.591 211.32 134.569 210.594 139.815C210.528 140.284 210.462 140.741 210.396 141.224L210.356 141.519C208.549 154.748 206.503 169.747 197.346 172.35C196.541 172.645 195.749 172.753 194.997 172.753Z" fill="#000200"/>
<path d="M233.514 121.93C233.369 121.93 233.223 121.863 233.118 121.756C232.959 121.568 232.946 121.3 233.078 121.099C234.596 118.925 237.551 117.53 239.926 116.416C241.457 115.705 243.186 114.887 243.304 114.31C243.318 114.269 243.331 114.176 243.172 113.974C241.932 112.458 234.912 114.699 226.111 119.408C225.861 119.542 225.544 119.448 225.399 119.18C225.267 118.925 225.359 118.603 225.623 118.455C229.304 116.483 241.51 110.271 243.977 113.277C244.386 113.773 244.4 114.229 244.334 114.524C244.096 115.611 242.526 116.349 240.375 117.369C239.333 117.865 238.172 118.402 237.09 119.046C240.494 117.53 245.205 115.893 247.369 117.208C247.923 117.543 248.582 118.227 248.582 119.623C248.582 119.918 248.345 120.159 248.055 120.159C247.764 120.159 247.527 119.918 247.527 119.623C247.527 118.898 247.303 118.402 246.828 118.12C244.386 116.644 236.562 120.32 233.764 121.863C233.685 121.917 233.606 121.93 233.514 121.93Z" fill="#000200"/>
<path d="M236.43 124.359C236.219 124.359 236.021 124.225 235.942 124.01C235.836 123.728 235.981 123.433 236.258 123.326C237.05 123.031 238.013 122.615 239.029 122.185C242.961 120.495 247.421 118.576 249.044 120.146C249.77 120.844 249.823 122.038 249.189 123.795C249.084 124.077 248.794 124.211 248.517 124.117C248.239 124.023 248.107 123.715 248.2 123.433C248.662 122.159 248.701 121.286 248.319 120.911C247.197 119.824 242.526 121.837 239.438 123.165C238.409 123.608 237.433 124.023 236.628 124.332C236.549 124.345 236.483 124.359 236.43 124.359Z" fill="#000200"/>
<path d="M200.077 203.625C185.259 203.625 178.002 193.173 177.923 193.052C177.764 192.811 177.817 192.475 178.055 192.314C178.292 192.153 178.622 192.207 178.78 192.448C178.873 192.583 188.03 205.718 206.86 201.84C226.56 197.788 229.819 168.701 231.561 153.071C231.666 152.131 231.759 151.246 231.864 150.401C231.957 149.569 232.009 148.737 232.062 147.905C232.115 147.1 232.168 146.309 232.247 145.53C232.273 145.155 232.326 144.752 232.392 144.35C232.88 140.392 234.107 133.429 236.799 131.497C238.871 130.007 241.484 129.028 243.793 128.156C246.405 127.176 248.873 126.251 249.11 125.016C249.189 124.574 249.189 124.278 249.084 124.184C248.451 123.608 244.36 124.989 239.174 126.734C238.897 126.828 238.607 126.68 238.515 126.398C238.422 126.116 238.567 125.821 238.844 125.727C246.326 123.218 248.741 122.454 249.783 123.393C250.337 123.889 250.258 124.681 250.153 125.231C249.81 127.056 247.316 127.995 244.162 129.162C241.919 130.007 239.372 130.96 237.406 132.369C235.678 133.603 234.226 138.03 233.435 144.497C233.369 144.886 233.329 145.262 233.303 145.624C233.21 146.402 233.171 147.167 233.118 147.959C233.065 148.804 233.012 149.649 232.907 150.508C232.814 151.353 232.709 152.239 232.603 153.164C230.822 169.063 227.51 198.647 207.071 202.846C204.577 203.41 202.254 203.625 200.077 203.625Z" fill="#000200"/>
<path d="M232.92 144.47C232.854 144.859 232.814 145.235 232.788 145.624C228.711 146.818 224.396 147.127 220.16 146.429C216.36 145.799 212.375 144.095 209.921 141.21C210 140.727 210.053 140.271 210.119 139.801C212.745 143.639 218.273 145.356 222.852 145.678C226.27 145.906 229.674 145.477 232.92 144.47Z" fill="#000200"/>
<path d="M194.034 203.128C193.968 203.128 193.915 203.115 193.849 203.101C193.572 202.994 193.44 202.699 193.532 202.417C197.623 191.067 214.051 186.559 222.707 189.175C222.984 189.255 223.142 189.551 223.063 189.832C222.984 190.114 222.694 190.275 222.417 190.195C214.13 187.699 198.415 191.979 194.522 202.793C194.443 202.994 194.245 203.128 194.034 203.128Z" fill="#000200"/>
<path d="M142.679 49.1986C140.277 46.8239 135.065 44.5296 123.862 47.0922C123.691 47.1325 123.546 47.2532 123.493 47.4276C123.427 47.602 123.453 47.7899 123.559 47.924L125.802 51.0501C125.934 51.238 126.158 51.3185 126.369 51.2514C131.133 49.8024 135.197 49.9768 137.823 51.7344C139.433 52.8077 140.409 54.4714 140.647 56.551C141.254 61.8103 131.41 63.2325 131.318 63.2459C131.054 63.2861 130.856 63.5276 130.869 63.796L131.304 72.7046C131.318 72.9864 131.555 73.2145 131.832 73.2145H133.746C133.891 73.2145 134.023 73.1608 134.128 73.0535C134.221 72.9461 134.287 72.812 134.273 72.6644L134.075 66.2915C136.055 65.8487 143.84 63.7691 145.001 57.7316C145.634 54.3506 144.816 51.3185 142.679 49.1986Z" fill="#000200"/>
<path d="M134.115 75.0793H131.489C131.238 75.0793 131.027 75.2538 130.975 75.4953L130.236 78.8494C130.209 78.997 130.236 79.1446 130.315 79.2654C130.394 79.3861 130.526 79.4666 130.671 79.4934L134.023 80.0167C134.049 80.0167 134.075 80.0167 134.102 80.0167C134.221 80.0167 134.352 79.9765 134.445 79.8825C134.564 79.7752 134.63 79.6276 134.63 79.48V75.6026C134.643 75.3208 134.405 75.0793 134.115 75.0793Z" fill="#000200"/>
<rect x="30.3333" y="189.402" width="213.5" height="22.75" fill="#A0DDE2" fill-opacity="0.8"/>
</svg>
