<svg width="280" height="265" viewBox="0 0 280 265" fill="none" xmlns="http://www.w3.org/2000/svg">
<rect width="280" height="263.934" transform="translate(0 0.402222)" fill="white"/>
<path d="M203.284 80.4402L172.75 92.5944C175.97 102.558 182.62 111.215 192.305 116.216C197.174 118.737 202.492 120.07 207.81 120.228L203.284 80.4402Z" fill="#F6C8E2"/>
<path d="M36.181 129.677L39.7964 127.513L43.0556 131.855L39.6117 134.019L36.181 129.677Z" fill="#FFCB56"/>
<path d="M79.8171 186.397L98.1451 129.11L114.824 126.695L122.266 186.991L113.9 186.819L111.736 162.656L92.6956 162.827L86.771 186.991L79.8171 186.397Z" fill="#FFCB56"/>
<path d="M161.97 148.258L163.646 152.376C163.646 152.376 173.146 149.683 175.442 152.507C177.395 154.922 177.725 159.079 177.725 159.079C177.725 159.079 166.417 160.082 165.942 170.785C165.467 181.487 173.977 173.86 180.153 171.247L181.156 173.398L187.107 171.973C187.107 171.973 184.494 161.508 182.818 153.893C181.156 146.279 173.397 143.019 161.97 148.258Z" fill="#A0DDE2"/>
<path d="M224.053 88.2264C222.285 85.8246 220.503 83.4096 218.735 81.0078C218.339 80.4667 217.416 80.9946 217.825 81.5489C219.593 83.9507 221.374 86.3656 223.142 88.7675C223.538 89.3085 224.462 88.7807 224.053 88.2264Z" fill="#FF3857"/>
<path d="M224.185 81.5752L217.31 86.8407C216.782 87.2498 217.297 88.1736 217.851 87.7513C220.147 85.9961 222.43 84.241 224.726 82.4858C225.254 82.0767 224.726 81.1529 224.185 81.5752Z" fill="#FF3857"/>
<path d="M199.497 51.5659L194.786 59.1936C194.43 59.7742 195.34 60.3021 195.696 59.7346C197.267 57.1877 198.837 54.6539 200.407 52.1069C200.777 51.5131 199.853 50.9852 199.497 51.5659Z" fill="#F6C8E2"/>
<path d="M50.3393 96.4216C50.3261 96.4216 50.2997 96.4216 50.2866 96.4216C50.1414 96.4084 50.0095 96.3292 49.9171 96.2236L38.9388 82.0899C38.8464 81.9844 38.82 81.8392 38.8332 81.694C38.8464 81.5489 38.9256 81.4301 39.0311 81.3377L64.1282 61.8198C64.2338 61.7274 64.3789 61.6878 64.5241 61.7142C64.6692 61.7274 64.788 61.8066 64.8803 61.9122L75.0669 75.0165C75.2385 75.2408 75.2121 75.5576 74.9878 75.7423L50.6824 96.2896C50.59 96.3688 50.4581 96.4216 50.3393 96.4216ZM40.0999 81.8524L50.4185 95.1283L73.9058 75.2672L64.3525 62.9811L40.0999 81.8524Z" fill="#000200"/>
<path d="M79.3949 60.5133C79.2893 60.3813 79.1046 60.3153 78.9331 60.3153L64.3921 61.7142C64.1941 61.7274 64.0358 61.8593 63.9566 62.0309C63.8775 62.2024 63.9039 62.4136 64.0226 62.5719L74.2092 75.6763C74.3148 75.8083 74.4599 75.8874 74.6315 75.8874C74.6579 75.8874 74.6974 75.8874 74.7238 75.8742C74.9218 75.8347 75.0801 75.7027 75.1329 75.5047L79.5005 61.0147C79.5533 60.83 79.5137 60.6584 79.3949 60.5133ZM74.4204 74.2115L65.4477 62.6775L71.7154 62.0837L76.2941 67.9694L74.4204 74.2115Z" fill="#000200"/>
<path d="M48.0434 93.4655C47.8983 93.4655 47.7531 93.3996 47.6476 93.2808C47.4496 93.0564 47.476 92.7265 47.7003 92.5286L71.0425 72.2056C71.2668 72.0077 71.5967 72.0341 71.7946 72.2584C71.9925 72.4828 71.9661 72.8127 71.7418 73.0106L48.3997 93.3336C48.2941 93.4259 48.1622 93.4655 48.0434 93.4655Z" fill="#000200"/>
<path d="M43.0556 87.0518C42.8973 87.0518 42.7389 86.9858 42.6334 86.8407C42.4486 86.6163 42.5014 86.2732 42.7257 86.1017L67.8228 66.5837C68.0603 66.3989 68.3902 66.4517 68.5617 66.6761C68.7465 66.9004 68.6937 67.2435 68.4694 67.4151L43.3723 86.933C43.2799 87.0122 43.1612 87.0518 43.0556 87.0518Z" fill="#000200"/>
<path d="M45.919 98.0051C45.6419 98.0051 45.3648 97.992 45.0877 97.9656C43.0556 97.7412 41.2479 96.7515 39.9812 95.1415L37.5797 92.1062C36.3261 90.5226 35.7588 88.5299 36.0095 86.524C36.247 84.5049 37.263 82.7101 38.8728 81.4697L39.0311 81.3509C39.2686 81.1661 39.5985 81.2057 39.7701 81.4433C39.9548 81.6676 39.902 82.0107 39.6777 82.1823L39.5194 82.301C38.1471 83.37 37.2762 84.914 37.0651 86.6428C36.8539 88.3715 37.3422 90.0739 38.4242 91.4464L40.8257 94.4816C41.9077 95.8541 43.4647 96.7119 45.2064 96.9098C46.9482 97.0946 48.6504 96.5931 50.0095 95.4846C50.2338 95.2998 50.5637 95.3262 50.7616 95.5638C50.9463 95.7881 50.9067 96.118 50.6824 96.3028C49.3101 97.4113 47.6475 98.0051 45.919 98.0051Z" fill="#000200"/>
<path d="M143.998 212.249C143.972 212.249 143.959 212.249 143.932 212.249L72.3883 203.315C72.1376 203.289 71.9397 203.077 71.9265 202.827L69.3139 170.495C69.2875 170.204 69.5118 169.954 69.8021 169.927C70.0924 169.901 70.1187 168.476 70.1451 168.766L72.9557 202.312L143.444 211.114L138.733 112.086L64.8407 102.175L68.3638 145.659C68.3902 145.949 68.1659 146.2 67.8756 146.226C67.5853 146.239 67.3346 146.028 67.3082 145.738L63.7323 101.595C63.7191 101.436 63.7851 101.278 63.8907 101.172C64.0094 101.067 64.1678 101.014 64.3261 101.027L139.301 111.083C139.551 111.123 139.749 111.334 139.762 111.585L144.526 211.682C144.539 211.84 144.473 211.985 144.354 212.091C144.262 212.196 144.13 212.249 143.998 212.249Z" fill="#000200"/>
<path d="M143.998 212.249C143.747 212.249 143.523 212.064 143.484 211.814C143.431 211.537 143.602 211.273 143.879 211.207L213.629 194.196L206.266 129.44C206.226 129.149 206.437 128.885 206.728 128.859C207.031 128.833 207.282 129.031 207.308 129.321L214.724 194.539C214.75 194.803 214.579 195.054 214.328 195.12L207.48 196.796L207.638 204.767C207.638 205.044 207.44 205.268 207.163 205.308L144.064 212.262C144.038 212.249 144.025 212.249 143.998 212.249ZM206.424 197.033L152.074 210.296L206.582 204.292L206.424 197.033Z" fill="#000200"/>
<path d="M89.9378 185.077C89.9246 185.077 89.9114 185.077 89.8982 185.077L82.9444 184.483C82.786 184.47 82.6409 184.378 82.5485 184.246C82.4561 184.114 82.4297 183.942 82.4825 183.784L100.824 126.497C100.89 126.299 101.048 126.167 101.246 126.127L117.925 123.712C118.07 123.699 118.215 123.725 118.32 123.818C118.439 123.91 118.505 124.029 118.518 124.174L125.974 184.47C125.987 184.628 125.947 184.774 125.842 184.892C125.736 185.011 125.591 185.064 125.433 185.064L117.054 184.892C116.79 184.892 116.565 184.681 116.539 184.404L114.428 160.729L96.2846 160.887L90.4524 184.655C90.3864 184.919 90.1753 185.077 89.9378 185.077ZM117.555 183.863L124.839 184.008L117.529 124.847L101.721 127.143L83.6833 183.48L89.5287 183.982L95.361 160.254C95.4137 160.016 95.6249 159.858 95.8756 159.845L114.916 159.673C115.193 159.673 115.418 159.884 115.444 160.162L117.555 183.863Z" fill="#000200"/>
<path d="M171.945 174.427C171.338 174.427 170.784 174.295 170.296 173.992C169.003 173.2 168.449 171.339 168.581 168.33C169.016 158.657 178.002 156.572 180.311 156.189C180.153 155.041 179.651 152.178 178.213 150.409C176.511 148.311 169.517 149.723 166.971 150.449C166.707 150.528 166.43 150.383 166.337 150.132L164.662 146.015C164.556 145.751 164.675 145.447 164.926 145.329C171.259 142.425 176.973 141.937 181.037 143.956C183.874 145.381 185.774 147.928 186.526 151.333C188.175 158.855 190.775 169.294 190.801 169.399C190.841 169.531 190.814 169.677 190.735 169.808C190.656 169.927 190.537 170.02 190.405 170.046L184.454 171.471C184.204 171.524 183.953 171.405 183.847 171.181L183.056 169.492C181.855 170.033 180.562 170.759 179.308 171.445C176.577 172.976 173.964 174.427 171.945 174.427ZM174.294 148.232C176.273 148.232 178.107 148.601 179.031 149.736C181.063 152.244 181.406 156.427 181.419 156.599C181.446 156.889 181.222 157.14 180.944 157.166C180.496 157.206 170.098 158.261 169.649 168.37C169.531 170.93 169.94 172.514 170.863 173.094C172.434 174.071 175.68 172.276 178.82 170.534C180.258 169.729 181.763 168.911 183.135 168.317C183.399 168.212 183.702 168.317 183.821 168.581L184.652 170.35L189.666 169.149C189.112 166.945 186.948 158.143 185.51 151.571C184.837 148.496 183.135 146.186 180.588 144.919C176.933 143.098 171.708 143.507 165.862 146.094L167.169 149.301C168.369 148.971 171.484 148.232 174.294 148.232Z" fill="#000200"/>
<path d="M154.079 185.077C153.974 185.077 153.868 185.051 153.776 184.985C153.644 184.892 153.565 184.76 153.551 184.602L148.88 143.23C148.854 142.98 148.999 142.742 149.25 142.663L158.605 139.68C158.882 139.588 159.186 139.746 159.265 140.023C159.357 140.301 159.199 140.604 158.922 140.683L149.989 143.534L154.541 183.863L163.659 181.356C163.936 181.276 164.226 181.448 164.305 181.725C164.385 182.002 164.213 182.293 163.936 182.372L154.224 185.051C154.172 185.077 154.119 185.077 154.079 185.077Z" fill="#A0DDE2"/>
<path d="M198.336 170.957C198.085 170.957 197.874 170.785 197.821 170.534C197.755 170.244 197.94 169.967 198.23 169.901L203.798 168.7L200.407 140.248C200.368 139.958 200.579 139.694 200.869 139.654C201.159 139.614 201.423 139.826 201.463 140.116L204.92 169.056C204.946 169.334 204.775 169.584 204.511 169.637L198.468 170.93C198.415 170.957 198.375 170.957 198.336 170.957Z" fill="#A0DDE2"/>
<path d="M161.627 191.042C161.389 191.042 161.178 190.884 161.112 190.646C161.046 190.369 161.205 190.079 161.495 189.999L201.225 179.851C201.516 179.772 201.793 179.944 201.872 180.234C201.938 180.511 201.779 180.801 201.489 180.881L161.759 191.029C161.719 191.029 161.68 191.042 161.627 191.042Z" fill="#F6C8E2"/>
<path d="M128.085 203.354C127.913 203.354 127.742 203.275 127.649 203.117C127.491 202.879 127.557 202.549 127.795 202.378L134.669 197.772L127.715 190.884C127.504 190.672 127.504 190.343 127.715 190.131C127.926 189.92 128.256 189.92 128.467 190.131L135.883 197.469C136.002 197.574 136.055 197.733 136.041 197.891C136.028 198.049 135.936 198.195 135.804 198.274L128.388 203.236C128.296 203.315 128.19 203.354 128.085 203.354Z" fill="#A0DDE2"/>
<path d="M137.242 111.268C137.229 111.004 137.044 110.793 136.78 110.753L126.66 109.394C126.501 109.368 126.343 109.42 126.238 109.526C126.119 109.631 126.053 109.79 126.066 109.935L127.557 144.748C127.57 144.959 127.702 145.144 127.9 145.223C127.966 145.249 128.019 145.263 128.085 145.263C128.23 145.263 128.375 145.21 128.467 145.091L134.287 138.889L137.216 143.455C137.348 143.653 137.585 143.745 137.823 143.679C138.047 143.613 138.205 143.402 138.192 143.151L137.242 111.268Z" fill="#000200"/>
<path d="M174.426 169.65C173.898 169.65 173.423 169.531 173.054 169.241C172.513 168.819 172.275 168.251 172.341 167.591C172.592 165.242 177.012 162.128 181.274 160.082C181.419 160.016 181.578 160.016 181.723 160.082C181.868 160.148 181.974 160.28 182.013 160.426L183.148 164.714C183.201 164.912 183.135 165.137 182.963 165.269C181.921 166.1 177.276 169.65 174.426 169.65ZM181.169 161.323C176.867 163.474 173.568 166.166 173.41 167.71C173.384 168 173.476 168.212 173.727 168.41C174.941 169.347 179.229 166.852 182.053 164.662L181.169 161.323Z" fill="#000200"/>
<path d="M97.2479 156.638C97.0895 156.638 96.9312 156.572 96.8388 156.44C96.7333 156.308 96.6937 156.137 96.7333 155.978L102.935 131.248C102.988 131.037 103.159 130.891 103.37 130.852L113.306 129.295C113.451 129.268 113.61 129.308 113.729 129.413C113.847 129.506 113.913 129.651 113.926 129.809L114.784 155.609C114.784 155.754 114.731 155.886 114.639 155.991C114.547 156.097 114.415 156.15 114.27 156.163L97.2743 156.638C97.2611 156.638 97.2479 156.638 97.2479 156.638ZM103.885 131.842L97.934 155.556L113.702 155.107L112.884 130.429L103.885 131.842Z" fill="#000200"/>
<path d="M139.248 112.152C139.037 112.152 138.839 112.02 138.76 111.822C138.654 111.545 138.786 111.241 139.05 111.136L201.74 86.1941C201.898 86.1281 202.07 86.1413 202.202 86.2337C202.347 86.3128 202.439 86.458 202.452 86.6296L204.405 103.772C204.445 104.062 204.234 104.326 203.943 104.353C203.653 104.379 203.389 104.181 203.363 103.891L201.489 87.4346L139.446 112.126C139.38 112.139 139.314 112.152 139.248 112.152Z" fill="#000200"/>
<path d="M88.869 133.465C88.7766 133.465 88.6842 133.438 88.6051 133.399L74.9086 125.533C74.737 125.428 74.6315 125.243 74.6447 125.045C74.6579 124.847 74.7766 124.662 74.9613 124.583L88.6579 118.75C88.9218 118.632 89.2384 118.764 89.3572 119.027C89.476 119.291 89.344 119.608 89.0801 119.727L76.36 125.138L89.1329 132.475C89.3836 132.62 89.476 132.95 89.3308 133.201C89.2252 133.372 89.0537 133.465 88.869 133.465Z" fill="#A0DDE2"/>
<path d="M139.828 108.404C139.538 108.404 139.301 108.167 139.301 107.876C139.301 107.586 139.538 107.348 139.828 107.348C141.306 107.348 142.494 106.953 143.075 106.266C143.418 105.87 143.536 105.369 143.431 104.775C143.193 103.363 140.198 102.73 139.169 102.624C138.905 102.598 138.694 102.373 138.694 102.096V95.2471C138.694 94.9568 138.931 94.7192 139.222 94.7192C139.512 94.7192 139.749 94.9568 139.749 95.2471V101.621C141.003 101.819 144.117 102.518 144.46 104.59C144.605 105.488 144.407 106.306 143.866 106.939C143.101 107.876 141.623 108.404 139.828 108.404Z" fill="#000200"/>
<path d="M145.093 93.7823V95.2868C145.093 97.2135 148.089 97.2135 148.089 95.2868V93.7955C148.089 91.8688 145.093 91.8556 145.093 93.7823Z" fill="#000200"/>
<path d="M125.09 93.7823V95.2868C125.09 97.2135 128.085 97.2135 128.085 95.2868V93.7955C128.085 91.8688 125.09 91.8556 125.09 93.7823Z" fill="#000200"/>
<path d="M126.713 86.8407C125.499 87.0254 124.311 87.2762 123.163 87.6985C122.266 88.0284 122.939 89.3612 123.836 89.0313C124.865 88.6618 125.947 88.4639 127.029 88.3055C127.979 88.1603 127.663 86.6955 126.713 86.8407Z" fill="#000200"/>
<path d="M148.735 87.1442C147.825 87.0255 146.888 87.0651 145.991 86.8803C145.054 86.6823 144.579 88.0944 145.516 88.2924C146.545 88.5035 147.587 88.4903 148.63 88.6355C149.593 88.7675 149.685 87.263 148.735 87.1442Z" fill="#000200"/>
<path d="M174.254 91.486C171.998 87.3159 167.565 84.8745 162.92 85.4023C162.867 80.2028 161.97 73.7892 155.913 70.7144C155.095 69.3683 154.106 68.1542 152.958 67.0721C149.474 62.4928 143.167 60.2494 133.904 60.2494C124.298 60.2494 117.648 62.3477 113.742 66.729C106.867 67.7847 101.668 73.0634 100.613 80.2028C91.3233 77.3919 82.0735 81.6281 75.5815 88.4376C72.164 92.0139 68.9312 97.5565 69.9076 102.294L113.491 108.14C113.504 108.127 113.504 108.114 113.504 108.114C113.504 108.074 113.517 108.022 113.517 107.982C113.649 107.89 113.742 107.731 113.742 107.56C113.755 104.947 113.056 102.875 113.016 102.782C112.937 102.558 112.752 102.413 112.488 102.426C109.849 102.532 107.764 101.938 106.484 100.697C105.31 99.5624 105.125 98.256 105.125 97.5829C105.125 96.8175 105.336 95.6958 106.339 94.7456C107.962 93.2016 111.182 92.5154 115.668 92.7397C115.879 92.7529 116.262 92.555 116.645 92.423C123.823 89.2822 126.805 71.9417 126.805 71.9417C129.932 74.8318 147.31 80.6251 155.188 81.7205C155.214 82.8554 155.227 83.9639 155.254 85.046C155.399 92.3702 155.438 99.6812 155.267 105.079C155.254 105.369 155.979 104.841 155.966 104.933C155.94 105.303 157.589 104.287 159.621 103.482L175.785 97.055C175.68 95.1547 175.205 93.2676 174.254 91.486Z" fill="#000200"/>
<path d="M126.211 100.288C125.195 100.288 124.166 100.051 123.216 99.5756C120.696 98.3219 119.244 95.7485 119.218 92.5285C119.218 92.2382 119.455 92.0006 119.746 92.0006C120.036 92.0006 120.273 92.2382 120.273 92.5285C120.287 95.3394 121.527 97.5565 123.678 98.6254C125.512 99.536 127.689 99.404 129.193 98.2691C130.922 96.9758 131.568 94.64 131.054 91.6971C131.001 91.4068 131.199 91.1297 131.476 91.0769C131.766 91.0373 132.043 91.222 132.096 91.4992C132.901 96.0256 131.027 98.2031 129.84 99.1005C128.811 99.8923 127.531 100.288 126.211 100.288Z" fill="#000200"/>
<path d="M147.416 99.4305C146.532 99.4305 145.648 99.2193 144.816 98.797C142.468 97.6093 141.122 94.9832 141.122 91.5916C141.122 91.3013 141.359 91.0637 141.649 91.0637C141.94 91.0637 142.177 91.3013 142.177 91.5916C142.177 94.5609 143.312 96.8439 145.291 97.8468C146.848 98.6387 148.696 98.5067 150.094 97.4773C151.796 96.2368 152.522 93.9142 152.074 91.1297C152.021 90.8394 152.219 90.5622 152.509 90.5227C152.799 90.4831 153.063 90.6678 153.116 90.9581C153.631 94.1518 152.747 96.8439 150.714 98.3351C149.738 99.0741 148.577 99.4305 147.416 99.4305Z" fill="#000200"/>
<path d="M131.779 95.0624C131.595 95.0624 131.41 94.9568 131.318 94.7852C131.172 94.5345 131.265 94.2046 131.529 94.0594C131.753 93.9406 137.071 91.0769 141.9 93.3732C142.164 93.492 142.283 93.8087 142.151 94.0726C142.019 94.3365 141.715 94.4553 141.438 94.3233C137.11 92.2647 132.083 94.9568 132.043 94.9832C131.951 95.0492 131.859 95.0624 131.779 95.0624Z" fill="#000200"/>
<path d="M251.499 147.269C245.363 111.572 232.59 104.762 219.712 102.73C202.307 99.9716 189.666 107.137 182.158 124.042C178.173 133.016 178.556 135.075 179.466 135.919C180.364 136.764 181.855 136.131 182.897 135.576C185.22 134.349 185.958 132.317 186.671 130.35C187.054 129.282 187.463 128.173 188.122 127.183C188.122 127.144 188.122 127.091 188.136 127.038C188.281 126.603 188.426 126.154 188.545 125.705C188.545 125.692 188.558 125.666 188.558 125.652C188.347 125.52 188.057 125.547 187.872 125.745C186.711 127.051 186.17 128.542 185.655 129.981C184.956 131.921 184.349 133.584 182.383 134.626C180.799 135.471 180.311 135.26 180.179 135.128C179.796 134.771 179.321 133.016 183.122 124.452C190.405 108.048 202.663 101.08 219.54 103.759C232.036 105.739 244.426 112.403 250.456 147.44C253.346 164.279 251.287 177.238 244.334 185.988C235.005 197.72 218.564 199.95 206.991 200.61C206.701 200.623 206.477 200.874 206.49 201.164C206.503 201.441 206.741 201.666 207.018 201.666C207.031 201.666 207.044 201.666 207.044 201.666C218.814 200.992 235.559 198.709 245.152 186.648C252.317 177.661 254.441 164.411 251.499 147.269Z" fill="#000200"/>
<path d="M192.305 134.045C192.266 134.045 192.226 134.045 192.186 134.032C189.284 133.372 187.608 132.264 187.054 130.628C186.17 128.028 188.07 124.227 193.625 117.497C193.809 117.272 194.139 117.233 194.377 117.431C194.601 117.616 194.628 117.945 194.443 118.183C189.231 124.491 187.318 128.12 188.056 130.298C188.479 131.551 189.917 132.435 192.424 133.016C192.714 133.082 192.886 133.359 192.82 133.65C192.754 133.874 192.543 134.045 192.305 134.045Z" fill="#000200"/>
<path d="M197.095 136.104C197.082 136.104 197.069 136.104 197.056 136.104C193.981 135.84 192.081 134.785 191.421 132.95C189.877 128.754 195.485 122.472 197.966 119.978C198.177 119.767 198.507 119.767 198.718 119.978C198.929 120.189 198.929 120.519 198.718 120.73C193.915 125.573 191.5 130.113 192.411 132.594C192.925 133.993 194.522 134.824 197.148 135.048C197.438 135.075 197.649 135.326 197.636 135.616C197.597 135.893 197.372 136.104 197.095 136.104Z" fill="#000200"/>
<path d="M211.94 174.414C211.86 174.414 211.821 174.414 211.821 174.414C211.531 174.401 211.306 174.15 211.319 173.86C211.333 173.57 211.597 173.345 211.874 173.359C212.269 173.385 221.466 173.675 222.311 160.531C223.182 147.097 220.569 135.787 214.974 128.701C214.222 127.737 213.088 127.157 211.86 127.091C210.62 127.025 209.406 127.5 208.535 128.384C206.345 130.614 204.788 132 203.891 132.488C203.363 132.779 203.059 133.069 203.02 133.306C202.967 133.663 203.442 134.191 203.877 134.666C204.26 135.075 204.643 135.51 204.867 135.985C205.223 136.751 204.88 137.688 204.036 138.334C202.822 139.245 200.513 139.549 197.992 137.397C193.902 133.9 196.541 129.691 200.909 122.736C201.067 122.485 201.397 122.419 201.634 122.564C201.885 122.723 201.951 123.053 201.806 123.29C197.161 130.68 195.419 133.782 198.679 136.579C200.724 138.334 202.492 138.163 203.389 137.477C203.825 137.147 204.036 136.711 203.904 136.421C203.759 136.091 203.416 135.721 203.099 135.378C202.505 134.732 201.832 134.006 201.977 133.135C202.07 132.541 202.532 132.026 203.376 131.551C203.93 131.248 205.144 130.311 207.783 127.632C208.865 126.523 210.383 125.943 211.913 126.022C213.444 126.101 214.856 126.84 215.806 128.041C221.572 135.339 224.251 146.912 223.367 160.597C222.509 173.992 213.114 174.414 211.94 174.414Z" fill="#000200"/>
<path d="M180.232 121.456C179.493 121.456 178.714 121.258 177.962 120.743C177.25 120.255 177.157 119.648 177.197 119.212C177.566 115.28 192.358 108.708 194.034 107.969C194.298 107.85 195.419 107.256 195.538 107.533C195.657 107.797 194.733 108.827 194.456 108.945C185.404 112.904 178.424 117.365 178.253 119.318C178.239 119.476 178.266 119.661 178.569 119.872C180.245 121.02 182.026 120.07 183.465 119.305C183.913 119.067 184.309 118.856 184.665 118.724C184.942 118.632 185.246 118.777 185.338 119.054C185.431 119.331 185.286 119.635 185.008 119.727C184.731 119.819 184.375 120.017 183.953 120.242C182.963 120.743 181.644 121.456 180.232 121.456Z" fill="#000200"/>
<path d="M229.845 140.472C226.481 140.472 223.182 139.746 220.503 138.255C220.253 138.11 220.16 137.793 220.305 137.529C220.45 137.279 220.767 137.186 221.031 137.318C226.718 140.499 235.81 139.931 241.285 136.051C243.542 134.455 246.089 131.657 245.363 127.394C245.31 127.104 245.508 126.827 245.798 126.787C246.089 126.748 246.366 126.932 246.405 127.223C247.039 130.971 245.442 134.415 241.892 136.922C238.581 139.271 234.16 140.472 229.845 140.472Z" fill="#000200"/>
<path d="M71.7153 197.192C71.623 197.192 71.5306 197.165 71.4383 197.113C63.1385 192.164 57.9265 185.341 55.934 176.803C53.2818 165.493 57.1216 154.078 61.5815 147.163C62.2677 146.094 62.835 144.801 63.3892 143.56C64.4053 141.251 65.3685 139.073 67.0443 138.15C67.295 138.004 67.6249 138.097 67.77 138.361C67.9152 138.611 67.8096 138.941 67.5589 139.073C66.1866 139.826 65.3025 141.845 64.3657 143.983C63.7983 145.276 63.2177 146.609 62.4788 147.744C58.1376 154.474 54.4034 165.586 56.9764 176.565C58.9029 184.813 63.9566 191.412 71.9924 196.202C72.2431 196.347 72.3223 196.677 72.1772 196.928C72.0716 197.099 71.9001 197.192 71.7153 197.192Z" fill="#000200"/>
<path d="M70.1847 175.193C69.9868 175.193 69.8153 175.087 69.7097 174.902C68.0735 171.775 68.7597 169.413 69.9472 168.251C71.1348 167.09 72.9161 166.892 74.4731 167.75C77.2309 169.254 78.6428 169.043 78.9331 168.542C79.3289 167.829 78.2997 165.48 74.0113 163.065C72.1772 162.022 70.4882 161.811 68.984 162.418C66.7672 163.316 64.9463 165.995 63.7191 170.165C63.64 170.442 63.3365 170.6 63.0594 170.521C62.7823 170.442 62.6239 170.138 62.7031 169.861C64.0226 165.361 66.0547 162.445 68.5881 161.429C70.409 160.69 72.4015 160.927 74.5259 162.128C79.1046 164.728 80.6748 167.578 79.8567 169.043C79.2762 170.099 77.4156 170.561 73.9717 168.674C72.8237 168.04 71.5306 168.172 70.6861 169.003C69.7757 169.901 69.2875 171.788 70.6466 174.414C70.7785 174.678 70.6861 174.995 70.4222 175.127C70.3431 175.166 70.2639 175.193 70.1847 175.193Z" fill="#000200"/>
<path d="M61.0405 166.021C60.9878 166.021 60.935 166.008 60.8822 165.995C60.6051 165.902 60.4468 165.612 60.5259 165.335C61.7135 161.481 63.8247 158.71 66.6353 157.311C69.1027 156.084 72.0189 155.992 74.8558 157.034C79.2762 158.657 81.5589 160.188 81.8096 161.732C81.8888 162.234 81.7964 162.973 80.8992 163.712C79.329 164.992 77.0198 164.939 76.9143 164.926C76.624 164.912 76.3864 164.675 76.3996 164.385C76.4128 164.094 76.6503 163.896 76.9406 163.87C76.9538 163.87 78.9727 163.91 80.2262 162.893C80.8464 162.392 80.7804 162.036 80.754 161.917C80.6749 161.402 79.8832 160.017 74.4732 158.037C71.9133 157.1 69.2875 157.179 67.0839 158.275C64.5372 159.541 62.6108 162.088 61.5156 165.665C61.476 165.876 61.2649 166.021 61.0405 166.021Z" fill="#000200"/>
<path d="M59.4175 162.102C59.3383 162.102 59.2592 162.088 59.1932 162.049C58.9293 161.93 58.8105 161.613 58.9425 161.349C64.1018 150.37 68.1395 150.99 72.0584 151.584C75.7662 152.151 81.2686 153.933 81.4137 156.572C81.5193 158.631 79.6852 159.555 78.7087 159.753C78.4184 159.805 78.1413 159.621 78.0886 159.343C78.0226 159.053 78.2073 158.776 78.4976 158.723C78.5768 158.71 80.4505 158.288 80.3581 156.638C80.279 155.002 75.9378 153.26 71.9397 152.653C68.2186 152.085 64.7351 151.557 59.9057 161.811C59.8002 161.996 59.6154 162.102 59.4175 162.102Z" fill="#000200"/>
<path d="M58.4806 154.936C58.4015 154.936 58.3223 154.923 58.2563 154.883C57.9924 154.764 57.8737 154.447 58.0056 154.184C62.6503 144.299 67.2026 145.183 70.8576 145.896C71.2799 145.975 71.6889 146.054 72.0848 146.12C75.753 146.675 81.2686 148.469 81.4005 151.109C81.5061 153.167 79.6719 154.091 78.6955 154.289C78.4052 154.342 78.1281 154.17 78.0753 153.88C78.0094 153.59 78.1941 153.313 78.4844 153.26C78.5636 153.247 80.4373 152.824 80.3449 151.175C80.2657 149.538 75.9245 147.796 71.9264 147.189C71.5174 147.123 71.0951 147.044 70.6597 146.965C67.1894 146.292 63.2704 145.513 58.9688 154.659C58.8765 154.817 58.6786 154.936 58.4806 154.936Z" fill="#000200"/>
<rect x="42.459" y="193.763" width="210" height="22.377" fill="#A0DDE2" fill-opacity="0.8"/>
</svg>
